{"asset":{"version":"2.0","generator":"THREE.GLTFExporter"},"scenes":[{"nodes":[0],"name":"AuxScene"}],"scene":0,"nodes":[{"mesh":0}],"bufferViews":[{"buffer":0,"byteOffset":0,"byteLength":5256,"target":34962,"byteStride":12},{"buffer":0,"byteOffset":5256,"byteLength":5256,"target":34962,"byteStride":12}],"buffers":[{"byteLength":10512,"uri":"data:application/octet-stream;base64,"}],"accessors":[{"bufferView":0,"componentType":5126,"count":438,"max":[149.60000610351562,-0.699999988079071,139.60000610351562],"min":[-149.60000610351562,-0.8999999761581421,-159.60000610351562],"type":"VEC3"},{"bufferView":1,"componentType":5126,"count":438,"max":[0.16385065019130707,1,0.24253474175930023],"min":[-0.003890868742018938,0.9701427221298218,-0.08192838728427887],"type":"VEC3"}],"materials":[{"pbrMetallicRoughness":{"baseColorFactor":[0.5019607843137255,0.5019607843137255,0.5019607843137255,1],"metallicFactor":0,"roughnessFactor":1}}],"meshes":[{"primitives":[{"mode":4,"attributes":{"POSITION":0,"NORMAL":1},"material":0}]}]}